<?xml-stylesheet type="text/css" href="../../../css/2-modules/modules.css"?>
<svg id="svg-images" 
data-name="Layer 1" 
xmlns="http://www.w3.org/2000/svg" 
viewBox="0 0 673.9095 464.7764"
xmlns:xlink="http://www.w3.org/1999/xlink"

>
    <defs>
        <clipPath xmlns="http://www.w3.org/2000/svg" id="clip-path">
            <path d="M653.6991,378.35C617.995,430.718,504.9218,457.2764,317.625,457.2764c-230.31,0-294.18-35.8938-307.2094-65.9967-15.2165-35.155,32.5489-86.0354,64.15-119.7028,11.2025-11.9313,20.8773-22.2352,26.738-30.6021,26.3389-41.2555-2.1066-84.2083-27.1975-122.109C56.9327,92.9164,39.16,66.0783,47.4875,50.5726,58.051,30.9233,113.4843,7.5,317.625,7.5c197.94,0,312.5311,22.1054,340.5671,65.6873,15.4258,23.9725,1.8372,53.8058-11.3021,82.6607-7.8579,17.2529-15.2762,33.5475-15.4858,48.1846-.21,14.0081,6.5,31.0813,14.2575,50.8605C660.6685,293.1332,679.3589,340.7188,653.6991,378.35Z" fill="#bdccd4"/>
        </clipPath>
    </defs>
    <path class="border" d="M653.6991,378.35C617.995,430.718,504.9218,457.2764,317.625,457.2764c-230.31,0-294.18-35.8938-307.2094-65.9967-15.2165-35.155,32.5489-86.0354,64.15-119.7028,11.2025-11.9313,20.8773-22.2352,26.738-30.6021,26.3389-41.2555-2.1066-84.2083-27.1975-122.109C56.9327,92.9164,39.16,66.0783,47.4875,50.5726,58.051,30.9233,113.4843,7.5,317.625,7.5c197.94,0,312.5311,22.1054,340.5671,65.6873,15.4258,23.9725,1.8372,53.8058-11.3021,82.6607-7.8579,17.2529-15.2762,33.5475-15.4858,48.1846-.21,14.0081,6.5,31.0813,14.2575,50.8605C660.6685,293.1332,679.3589,340.7188,653.6991,378.35Z" fill="none" stroke="#2bdd51" stroke-miterlimit="10" stroke-width="15"/>

    <g xmlns="http://www.w3.org/2000/svg" clip-path="url(#clip-path)">
        <image width="1920" height="1080" transform="translate(-56.6677 7.5) scale(0.4336)" xlink:href="../../jpeg/compressed/about_1.jpg" xmlns:xlink="http://www.w3.org/1999/xlink"/>
    </g>
</svg>