<?xml-stylesheet type="text/css" href="../../../css/2-modules/modules.css"?>
<svg 
id="svg-images" 
data-name="Layer 1" 
xmlns="http://www.w3.org/2000/svg" 
viewBox="0 0 706.0066 548.7998"
xmlns:xlink="http://www.w3.org/1999/xlink"
>
    <defs>
        <clipPath xmlns="http://www.w3.org/2000/svg" id="clip-path">
            <path d="M698.5063,325.75c-.24,73.209-153.8089,210.6471-404.0139,215.55C136.3868,541.3,7.5,421.5707,7.5,274.4,7.5,124.8039,133.5852,7.6151,294.5761,7.5c174.1313,5.07,220.777,104.32,258.265,184.0732,23.48,49.97,45.6628,97.17,96.4168,98.4972C682.02,290.9277,698.59,302.9393,698.5063,325.75Z" fill="#22da4a"/>
        </clipPath>
    </defs>
    <path d="M698.5063,325.75c-.24,73.209-153.8089,210.6471-404.0139,215.55C136.3868,541.3,7.5,421.5707,7.5,274.4,7.5,124.8039,133.5852,7.6151,294.5761,7.5c174.1313,5.07,220.777,104.32,258.265,184.0732,23.48,49.97,45.6628,97.17,96.4168,98.4972C682.02,290.9277,698.59,302.9393,698.5063,325.75Z" fill="none" stroke="#22da4a" stroke-miterlimit="10" stroke-width="15"/>

    <g xmlns="http://www.w3.org/2000/svg" clip-path="url(#clip-path)">
        <image width="1920" height="1080" transform="translate(-56.6677 7.5) scale(0.5336)" xlink:href="../../jpeg/compressed/about_2.jpg" xmlns:xlink="http://www.w3.org/1999/xlink"/>
    </g>
   
</svg>